<svg xmlns="http://www.w3.org/2000/svg" xmlns:xlink="http://www.w3.org/1999/xlink" width="750" height="500" viewBox="0 0 750 500"><defs><style>.cls-1,.cls-10,.cls-11,.cls-7,.cls-9{fill:none;}.cls-2{isolation:isolate;}.cls-3{fill:url(#radial-gradient);}.cls-4{clip-path:url(#clip-path);}.cls-5{fill:url(#linear-gradient);}.cls-6{fill:url(#linear-gradient-2);}.cls-10,.cls-11,.cls-7,.cls-9{stroke-miterlimit:10;}.cls-7{stroke-width:5.6693px;stroke:url(#linear-gradient-3);}.cls-48,.cls-50,.cls-57,.cls-63,.cls-69,.cls-72,.cls-73,.cls-8,.cls-91{mix-blend-mode:multiply;}.cls-8{fill:url(#radial-gradient-2);}.cls-10,.cls-11,.cls-9{stroke-width:2.8347px;}.cls-9{stroke:url(#linear-gradient-4);}.cls-10{stroke:url(#linear-gradient-5);}.cls-11{stroke:url(#linear-gradient-6);}.cls-12{fill:url(#linear-gradient-7);}.cls-13{fill:url(#linear-gradient-8);}.cls-14{fill:url(#linear-gradient-9);}.cls-15{fill:url(#linear-gradient-10);}.cls-16{fill:url(#linear-gradient-11);}.cls-17{fill:url(#linear-gradient-12);}.cls-18{fill:url(#linear-gradient-13);}.cls-19{fill:url(#linear-gradient-14);}.cls-20{fill:url(#linear-gradient-15);}.cls-21{fill:url(#linear-gradient-16);}.cls-22{fill:url(#linear-gradient-17);}.cls-23{fill:url(#linear-gradient-18);}.cls-24{fill:url(#linear-gradient-19);}.cls-25{fill:url(#linear-gradient-20);}.cls-26{fill:url(#linear-gradient-21);}.cls-27{fill:url(#linear-gradient-22);}.cls-28{fill:url(#linear-gradient-23);}.cls-29{fill:url(#linear-gradient-24);}.cls-30{fill:url(#linear-gradient-25);}.cls-31{fill:url(#linear-gradient-26);}.cls-32{fill:url(#linear-gradient-27);}.cls-33{fill:url(#linear-gradient-28);}.cls-34{fill:url(#linear-gradient-29);}.cls-35{fill:url(#linear-gradient-30);}.cls-36{fill:url(#linear-gradient-31);}.cls-37{fill:url(#linear-gradient-32);}.cls-38{fill:url(#linear-gradient-33);}.cls-39{fill:url(#linear-gradient-34);}.cls-40{fill:url(#linear-gradient-35);}.cls-41{fill:url(#linear-gradient-36);}.cls-42{fill:url(#linear-gradient-37);}.cls-43{fill:url(#linear-gradient-38);}.cls-44{fill:url(#linear-gradient-39);}.cls-45{fill:url(#linear-gradient-40);}.cls-46{fill:url(#linear-gradient-41);}.cls-47{fill:url(#linear-gradient-42);}.cls-48{fill:url(#radial-gradient-3);}.cls-49{fill:url(#linear-gradient-43);}.cls-50{fill:url(#radial-gradient-4);}.cls-51{fill:url(#linear-gradient-44);}.cls-52{fill:url(#linear-gradient-45);}.cls-53{fill:url(#linear-gradient-46);}.cls-54{fill:url(#linear-gradient-47);}.cls-55{fill:url(#linear-gradient-48);}.cls-56{fill:url(#linear-gradient-49);}.cls-57{fill:url(#radial-gradient-5);}.cls-58{fill:url(#linear-gradient-50);}.cls-59{fill:url(#linear-gradient-51);}.cls-60{fill:url(#linear-gradient-52);}.cls-61{fill:url(#linear-gradient-53);}.cls-62{fill:url(#linear-gradient-54);}.cls-63{fill:url(#radial-gradient-6);}.cls-64{fill:url(#linear-gradient-55);}.cls-65{fill:url(#linear-gradient-56);}.cls-66{fill:url(#linear-gradient-57);}.cls-67{fill:url(#linear-gradient-58);}.cls-68{fill:url(#linear-gradient-59);}.cls-69{fill:url(#radial-gradient-7);}.cls-70{fill:url(#linear-gradient-60);}.cls-71{fill:url(#linear-gradient-61);}.cls-72{fill:url(#radial-gradient-8);}.cls-73{fill:url(#radial-gradient-9);}.cls-74{fill:url(#linear-gradient-64);}.cls-75{fill:url(#linear-gradient-65);}.cls-76{fill:url(#linear-gradient-66);}.cls-77{fill:url(#linear-gradient-67);}.cls-78{fill:url(#linear-gradient-68);}.cls-79{fill:url(#linear-gradient-69);}.cls-80{fill:url(#linear-gradient-70);}.cls-81{clip-path:url(#clip-path-2);}.cls-82{fill:url(#radial-gradient-10);}.cls-83{mix-blend-mode:overlay;fill:url(#radial-gradient-11);}.cls-84{fill:url(#linear-gradient-71);}.cls-85{fill:url(#linear-gradient-72);}.cls-86{fill:url(#linear-gradient-73);}.cls-87{fill:url(#linear-gradient-74);}.cls-88{fill:url(#linear-gradient-75);}.cls-89{fill:url(#linear-gradient-76);}.cls-90{fill:url(#linear-gradient-77);}.cls-91{fill:url(#radial-gradient-12);}.cls-92{fill:url(#linear-gradient-78);}.cls-93{fill:url(#linear-gradient-79);}.cls-94{fill:url(#linear-gradient-80);}.cls-95{fill:url(#linear-gradient-81);}</style><radialGradient id="radial-gradient" cx="348.5108" cy="117.507" r="588.0299" gradientTransform="translate(750 500) rotate(-180)" gradientUnits="userSpaceOnUse"><stop offset="0.1412" stop-color="#fff"/><stop offset="0.1887" stop-color="#fdfdfd"/><stop offset="1" stop-color="#d9dadb"/></radialGradient><clipPath id="clip-path"><rect class="cls-1" width="750" height="500" transform="translate(750 500) rotate(180)"/></clipPath><linearGradient id="linear-gradient" x1="189.6161" y1="184.0357" x2="173.1513" y2="207.4329" gradientUnits="userSpaceOnUse"><stop offset="0.1456" stop-color="#8cd5c9"/><stop offset="1" stop-color="#3fbaa6"/></linearGradient><linearGradient id="linear-gradient-2" x1="153.5413" y1="314.5927" x2="108.1162" y2="430.7761" gradientUnits="userSpaceOnUse"><stop offset="0" stop-color="#ffe067"/><stop offset="1" stop-color="#fec34a"/></linearGradient><linearGradient id="linear-gradient-3" x1="593.4001" y1="334.6348" x2="664.5423" y2="334.6348" gradientTransform="translate(1318.6041 87.7704) rotate(135)" gradientUnits="userSpaceOnUse"><stop offset="0" stop-color="#8757b0"/><stop offset="1" stop-color="#e0bdf7"/></linearGradient><radialGradient id="radial-gradient-2" cx="663.0727" cy="301.8337" r="39.3898" gradientUnits="userSpaceOnUse"><stop offset="0" stop-color="#413655"/><stop offset="0.1989" stop-color="#685f78" stop-opacity="0.7938"/><stop offset="1" stop-color="#fff" stop-opacity="0"/></radialGradient><linearGradient id="linear-gradient-4" x1="550.6141" y1="82.5462" x2="679.1683" y2="82.5462" gradientUnits="userSpaceOnUse"><stop offset="0" stop-color="#ffad44"/><stop offset="1" stop-color="#fe893e"/></linearGradient><linearGradient id="linear-gradient-5" x1="550.6141" y1="67.4591" x2="679.1683" y2="67.4591" xlink:href="#linear-gradient-4"/><linearGradient id="linear-gradient-6" x1="550.614" y1="52.3718" x2="679.1683" y2="52.3718" xlink:href="#linear-gradient-4"/><linearGradient id="linear-gradient-7" x1="636.2066" y1="512.3045" x2="660.9915" y2="512.3045" gradientTransform="matrix(-1, 0, 0, 1, 1335.1572, 0)" xlink:href="#linear-gradient"/><linearGradient id="linear-gradient-8" x1="636.2066" y1="486.3845" x2="660.9915" y2="486.3845" gradientTransform="matrix(-1, 0, 0, 1, 1335.1572, 0)" xlink:href="#linear-gradient"/><linearGradient id="linear-gradient-9" x1="636.2066" y1="460.4646" x2="660.9915" y2="460.4646" gradientTransform="matrix(-1, 0, 0, 1, 1335.1572, 0)" xlink:href="#linear-gradient"/><linearGradient id="linear-gradient-10" x1="636.2066" y1="434.5447" x2="660.9915" y2="434.5447" gradientTransform="matrix(-1, 0, 0, 1, 1335.1572, 0)" xlink:href="#linear-gradient"/><linearGradient id="linear-gradient-11" x1="426.813" y1="365.2223" x2="248.665" y2="467.6863" gradientUnits="userSpaceOnUse"><stop offset="0.0132" stop-color="#63c7b6"/><stop offset="1" stop-color="#00a388"/></linearGradient><linearGradient id="linear-gradient-12" x1="431.7968" y1="373.8899" x2="253.6507" y2="476.3529" xlink:href="#linear-gradient-11"/><linearGradient id="linear-gradient-13" x1="436.7816" y1="382.5569" x2="258.6356" y2="485.0198" xlink:href="#linear-gradient-11"/><linearGradient id="linear-gradient-14" x1="441.7666" y1="391.2238" x2="263.6209" y2="493.6866" xlink:href="#linear-gradient-11"/><linearGradient id="linear-gradient-15" x1="446.752" y1="399.8906" x2="268.605" y2="502.354" xlink:href="#linear-gradient-11"/><linearGradient id="linear-gradient-16" x1="451.7369" y1="408.5575" x2="273.5909" y2="511.0205" xlink:href="#linear-gradient-11"/><linearGradient id="linear-gradient-17" x1="456.7219" y1="417.2244" x2="278.5759" y2="519.6874" xlink:href="#linear-gradient-11"/><linearGradient id="linear-gradient-18" x1="433.2405" y1="376.3967" x2="255.0925" y2="478.8607" xlink:href="#linear-gradient-11"/><linearGradient id="linear-gradient-19" x1="438.2241" y1="385.0644" x2="260.0781" y2="487.5273" xlink:href="#linear-gradient-11"/><linearGradient id="linear-gradient-20" x1="443.209" y1="393.7313" x2="265.063" y2="496.1943" xlink:href="#linear-gradient-11"/><linearGradient id="linear-gradient-21" x1="448.1939" y1="402.3983" x2="270.0482" y2="504.8611" xlink:href="#linear-gradient-11"/><linearGradient id="linear-gradient-22" x1="453.1793" y1="411.065" x2="275.0323" y2="513.5285" xlink:href="#linear-gradient-11"/><linearGradient id="linear-gradient-23" x1="458.1643" y1="419.7319" x2="280.0183" y2="522.1949" xlink:href="#linear-gradient-11"/><linearGradient id="linear-gradient-24" x1="463.1491" y1="428.399" x2="285.003" y2="530.8619" xlink:href="#linear-gradient-11"/><linearGradient id="linear-gradient-25" x1="92.8371" y1="679.954" x2="19.1079" y2="806.5045" gradientTransform="translate(819.4261 69.4261) rotate(90)" gradientUnits="userSpaceOnUse"><stop offset="0" stop-color="#e0bdf7"/><stop offset="1" stop-color="#8757b0"/></linearGradient><linearGradient id="linear-gradient-26" x1="82.9422" y1="674.1873" x2="9.212" y2="800.7396" xlink:href="#linear-gradient-25"/><linearGradient id="linear-gradient-27" x1="73.0458" y1="668.4233" x2="-0.6835" y2="794.974" xlink:href="#linear-gradient-25"/><linearGradient id="linear-gradient-28" x1="63.1502" y1="662.6578" x2="-10.579" y2="789.2082" xlink:href="#linear-gradient-25"/><linearGradient id="linear-gradient-29" x1="53.2548" y1="656.8921" x2="-20.4756" y2="783.4445" xlink:href="#linear-gradient-25"/><linearGradient id="linear-gradient-30" x1="105.4326" y1="687.2928" x2="31.7039" y2="813.8422" xlink:href="#linear-gradient-25"/><linearGradient id="linear-gradient-31" x1="95.5376" y1="681.5263" x2="21.808" y2="808.0774" xlink:href="#linear-gradient-25"/><linearGradient id="linear-gradient-32" x1="85.6414" y1="675.7619" x2="11.9127" y2="802.3115" xlink:href="#linear-gradient-25"/><linearGradient id="linear-gradient-33" x1="75.7458" y1="669.9965" x2="2.0169" y2="796.5464" xlink:href="#linear-gradient-25"/><linearGradient id="linear-gradient-34" x1="65.8504" y1="664.2307" x2="-7.8794" y2="790.782" xlink:href="#linear-gradient-25"/><linearGradient id="linear-gradient-35" x1="118.0288" y1="694.6304" x2="44.2992" y2="821.1814" xlink:href="#linear-gradient-25"/><linearGradient id="linear-gradient-36" x1="108.1337" y1="688.8641" x2="34.4031" y2="815.4168" xlink:href="#linear-gradient-25"/><linearGradient id="linear-gradient-37" x1="98.2374" y1="683.0998" x2="24.5078" y2="809.6509" xlink:href="#linear-gradient-25"/><linearGradient id="linear-gradient-38" x1="88.3417" y1="677.3346" x2="14.6122" y2="803.8855" xlink:href="#linear-gradient-25"/><linearGradient id="linear-gradient-39" x1="78.4462" y1="671.569" x2="4.7155" y2="798.1219" xlink:href="#linear-gradient-25"/><linearGradient id="linear-gradient-40" x1="302.5192" y1="629.4355" x2="276.1513" y2="736.6652" gradientTransform="translate(712.5369 147.5573) rotate(90)" xlink:href="#linear-gradient-25"/><linearGradient id="linear-gradient-41" x1="293.1893" y1="627.141" x2="266.8212" y2="734.3714" gradientTransform="translate(712.5369 147.5573) rotate(90)" xlink:href="#linear-gradient-25"/><linearGradient id="linear-gradient-42" x1="491.9837" y1="337.3606" x2="440.0801" y2="348.0624" xlink:href="#linear-gradient"/><radialGradient id="radial-gradient-3" cx="429.3897" cy="300.4084" r="69.9586" gradientUnits="userSpaceOnUse"><stop offset="0" stop-color="#4a4f55"/><stop offset="0.1661" stop-color="#6f7378" stop-opacity="0.7938"/><stop offset="0.8351" stop-color="#fff" stop-opacity="0"/></radialGradient><linearGradient id="linear-gradient-43" x1="693.4001" y1="105.7135" x2="624.5994" y2="279.0916" gradientTransform="matrix(0.401, -0.174, 0.8858, 0.3241, -18.5575, 381.7944)" xlink:href="#linear-gradient"/><radialGradient id="radial-gradient-4" cx="413.6293" cy="309.2592" r="69.9586" gradientTransform="translate(-6.89 204.2846) rotate(-3.3665) scale(1 0.4187)" gradientUnits="userSpaceOnUse"><stop offset="0" stop-color="#4a4f55"/><stop offset="0.1989" stop-color="#6f7378" stop-opacity="0.7938"/><stop offset="1" stop-color="#fff" stop-opacity="0"/></radialGradient><linearGradient id="linear-gradient-44" x1="431.6402" y1="384.4068" x2="436.7417" y2="362.9803" xlink:href="#linear-gradient-11"/><linearGradient id="linear-gradient-45" x1="242.7925" y1="103.882" x2="261.9561" y2="123.7688" gradientTransform="translate(-62.2366 312.1851) rotate(-28.1257)" gradientUnits="userSpaceOnUse"><stop offset="0" stop-color="#bf97de"/><stop offset="0.4147" stop-color="#e0bdf7"/><stop offset="1" stop-color="#8757b0"/></linearGradient><linearGradient id="linear-gradient-46" x1="467.8113" y1="202.5139" x2="458.1212" y2="261.2798" gradientTransform="matrix(-0.9562, 0.2927, 0.2927, 0.9562, 614.9137, -87.6943)" xlink:href="#linear-gradient-25"/><linearGradient id="linear-gradient-47" x1="347.9437" y1="-45.2731" x2="364.7607" y2="-27.8215" gradientTransform="matrix(-0.9813, -0.1926, -0.1926, 0.9813, 764.402, 183.9467)" gradientUnits="userSpaceOnUse"><stop offset="0" stop-color="#ffad44"/><stop offset="0.224" stop-color="#fc4"/><stop offset="1" stop-color="#fe893e"/></linearGradient><linearGradient id="linear-gradient-48" x1="385.2585" y1="-73.7034" x2="390.8174" y2="-53.3207" gradientTransform="matrix(-0.9813, -0.1926, -0.1926, 0.9813, 764.402, 183.9467)" xlink:href="#linear-gradient-2"/><linearGradient id="linear-gradient-49" x1="289.7429" y1="12.9262" x2="306.5598" y2="30.3778" xlink:href="#linear-gradient-47"/><radialGradient id="radial-gradient-5" cx="448.8944" cy="120.3853" r="39.4269" gradientUnits="userSpaceOnUse"><stop offset="0.0981" stop-color="#ac6c4b"/><stop offset="0.6297" stop-color="#dec5b8" stop-opacity="0.3959"/><stop offset="1" stop-color="#fff" stop-opacity="0"/></radialGradient><linearGradient id="linear-gradient-50" x1="327.0577" y1="-15.5042" x2="332.6166" y2="4.8786" gradientTransform="matrix(-0.9813, -0.1926, -0.1926, 0.9813, 764.402, 183.9467)" xlink:href="#linear-gradient-2"/><linearGradient id="linear-gradient-51" x1="35.3646" y1="301.3173" x2="57.0153" y2="228.9227" gradientTransform="translate(81.7237 -4.4382) rotate(17.6015)" gradientUnits="userSpaceOnUse"><stop offset="0" stop-color="#fec34a"/><stop offset="1" stop-color="#ffe067"/></linearGradient><linearGradient id="linear-gradient-52" x1="54.209" y1="225.0243" x2="45.0846" y2="247.0749" gradientTransform="translate(81.7237 -4.4382) rotate(17.6015)" gradientUnits="userSpaceOnUse"><stop offset="0" stop-color="#fe893e"/><stop offset="1" stop-color="#ffad44"/></linearGradient><linearGradient id="linear-gradient-53" x1="17.2309" y1="185.2321" x2="74.844" y2="185.2321" gradientTransform="translate(162.674 123.7429) rotate(50.2377)" xlink:href="#linear-gradient-52"/><linearGradient id="linear-gradient-54" x1="473.7241" y1="-294.2542" x2="561.2777" y2="-294.2542" gradientTransform="translate(1097.6237 719.9036) rotate(-118.9795)" xlink:href="#linear-gradient-52"/><radialGradient id="radial-gradient-6" cx="491.3243" cy="-315.1643" r="49.7097" gradientTransform="translate(1097.6237 719.9036) rotate(-118.9795)" xlink:href="#radial-gradient-5"/><linearGradient id="linear-gradient-55" x1="101.4953" y1="499.9745" x2="64.1416" y2="450.1697" gradientTransform="matrix(0.8625, 0.5061, -0.5061, 0.8625, 759.1295, -57.0955)" xlink:href="#linear-gradient-2"/><linearGradient id="linear-gradient-56" x1="856.3465" y1="221.8491" x2="940.1482" y2="221.8491" gradientTransform="matrix(-0.1558, -0.9878, -0.9878, 0.1558, 1020.2623, 951.7305)" xlink:href="#linear-gradient-11"/><linearGradient id="linear-gradient-57" x1="638.5293" y1="6.795" x2="667.0431" y2="190.7092" gradientTransform="translate(120.6156 -271.7209) rotate(27.2133)" xlink:href="#linear-gradient"/><linearGradient id="linear-gradient-58" x1="590.072" y1="-158.2756" x2="671.2143" y2="-158.2756" gradientTransform="matrix(0.9802, -0.1981, -0.1981, -0.9802, -492.7591, 384.5527)" gradientUnits="userSpaceOnUse"><stop offset="0" stop-color="#ab83c9"/><stop offset="1" stop-color="#7e55a1"/></linearGradient><linearGradient id="linear-gradient-59" x1="119.1379" y1="345.1606" x2="155.7402" y2="471.2352" gradientTransform="translate(-229.7346 277.004) rotate(-53.1507)" xlink:href="#linear-gradient-25"/><radialGradient id="radial-gradient-7" cx="220.9964" cy="404.5385" r="76.6847" gradientTransform="matrix(0.6721, 0.7405, -0.5367, 0.4872, 289.5821, 43.8235)" gradientUnits="userSpaceOnUse"><stop offset="0.1411" stop-color="#413655"/><stop offset="0.312" stop-color="#685f78" stop-opacity="0.7938"/><stop offset="1" stop-color="#fff" stop-opacity="0"/></radialGradient><linearGradient id="linear-gradient-60" x1="475.4072" y1="98.5374" x2="507.8965" y2="259.2744" gradientTransform="matrix(0.5239, 1.0375, -1.2082, 0.5137, 420.2298, -328.8584)" xlink:href="#linear-gradient-52"/><linearGradient id="linear-gradient-61" x1="573.9779" y1="168.7878" x2="505.6033" y2="341.0921" gradientTransform="matrix(1.293, 0.1619, -0.2499, 1.1464, -199.5252, -123.3926)" xlink:href="#linear-gradient-2"/><radialGradient id="radial-gradient-8" cx="493.3338" cy="251.4859" r="77.0852" xlink:href="#radial-gradient-5"/><radialGradient id="radial-gradient-9" cx="490.5265" cy="258.4928" r="77.0855" xlink:href="#radial-gradient-5"/><linearGradient id="linear-gradient-64" x1="494.0939" y1="264.1258" x2="465.5076" y2="283.5429" gradientTransform="matrix(0.5239, 1.0375, -1.2082, 0.5137, 420.2298, -328.8584)" xlink:href="#linear-gradient-52"/><linearGradient id="linear-gradient-65" x1="700.8393" y1="177.4553" x2="724.6656" y2="295.3327" gradientTransform="matrix(1, 0, 0, 1, 0, 0)" xlink:href="#linear-gradient-52"/><linearGradient id="linear-gradient-66" x1="644.1072" y1="397.5769" x2="600.8254" y2="506.6471" gradientTransform="matrix(0.5647, -0.8253, 0.8253, 0.5647, -46.6652, 492.8074)" xlink:href="#linear-gradient-2"/><linearGradient id="linear-gradient-67" x1="703.2774" y1="286.9111" x2="671.1207" y2="308.7534" gradientTransform="matrix(1, 0, 0, 1, 0, 0)" xlink:href="#linear-gradient-52"/><linearGradient id="linear-gradient-68" x1="500.2932" y1="175.3792" x2="572.2474" y2="312.5418" gradientTransform="matrix(1, 0, 0, 1, 0, 0)" xlink:href="#linear-gradient-25"/><linearGradient id="linear-gradient-69" x1="550.8071" y1="244.6325" x2="523.9949" y2="312.1995" gradientTransform="matrix(0.5647, -0.8253, 0.8253, 0.5647, -46.6652, 492.8074)" xlink:href="#linear-gradient-25"/><linearGradient id="linear-gradient-70" x1="488.926" y1="323.6716" x2="495.6717" y2="240.4749" gradientTransform="matrix(1, 0, 0, 1, 0, 0)" xlink:href="#linear-gradient-25"/><clipPath id="clip-path-2"><circle class="cls-1" cx="235.9113" cy="355.825" r="61.3047" transform="translate(-152.3816 533.2912) rotate(-81.0181)"/></clipPath><radialGradient id="radial-gradient-10" cx="248.1461" cy="265.8132" r="90.935" gradientTransform="translate(413.395 10.5374) rotate(69.189)" gradientUnits="userSpaceOnUse"><stop offset="0" stop-color="#ffda69"/><stop offset="0.1782" stop-color="#ffce72"/><stop offset="0.3493" stop-color="#ffc876"/><stop offset="0.3567" stop-color="#ffc775"/><stop offset="0.66" stop-color="#fb9942"/><stop offset="0.8094" stop-color="#fa872f"/><stop offset="1" stop-color="#ffa15f"/></radialGradient><radialGradient id="radial-gradient-11" cx="251.1214" cy="266.3633" r="101.1429" gradientTransform="translate(413.395 10.5374) rotate(69.189)" gradientUnits="userSpaceOnUse"><stop offset="0" stop-color="#fffffb"/><stop offset="0.0195" stop-color="#fffef4" stop-opacity="0.9424"/><stop offset="0.0924" stop-color="#fffbdb" stop-opacity="0.7468"/><stop offset="0.1708" stop-color="#fff9c4" stop-opacity="0.569"/><stop offset="0.2529" stop-color="#fff6b0" stop-opacity="0.4156"/><stop offset="0.3396" stop-color="#fff4a0" stop-opacity="0.2867"/><stop offset="0.4324" stop-color="#fff392" stop-opacity="0.1818"/><stop offset="0.5333" stop-color="#fff288" stop-opacity="0.1008"/><stop offset="0.6465" stop-color="#fff181" stop-opacity="0.0437"/><stop offset="0.7822" stop-color="#fff07c" stop-opacity="0.0102"/><stop offset="1" stop-color="#fff07b" stop-opacity="0"/></radialGradient><linearGradient id="linear-gradient-71" x1="176.1786" y1="-48.677" x2="75.6233" y2="196.6341" xlink:href="#linear-gradient"/><linearGradient id="linear-gradient-72" x1="145.7688" y1="74.1175" x2="151.4398" y2="-38.1658" xlink:href="#linear-gradient-11"/><linearGradient id="linear-gradient-73" x1="547.9491" y1="388.3568" x2="454.004" y2="617.5416" gradientTransform="translate(-266.8674 117.0384) rotate(-42.3088)" xlink:href="#linear-gradient-25"/><linearGradient id="linear-gradient-74" x1="500.6697" y1="502.1241" x2="505.9677" y2="397.2245" gradientTransform="translate(-266.8674 117.0384) rotate(-42.3088)" xlink:href="#linear-gradient-58"/><linearGradient id="linear-gradient-75" x1="519.5381" y1="503.0789" x2="524.8362" y2="398.1768" gradientTransform="translate(-266.8674 117.0384) rotate(-42.3088)" xlink:href="#linear-gradient-58"/><linearGradient id="linear-gradient-76" x1="323.9699" y1="140.4868" x2="477.0689" y2="138.9165" gradientTransform="translate(101.5284 -197.2576) rotate(45)" xlink:href="#linear-gradient-45"/><linearGradient id="linear-gradient-77" x1="416.8059" y1="104.7713" x2="166.1717" y2="240.9701" gradientTransform="translate(417.9569 -234.153) rotate(90)" xlink:href="#linear-gradient-25"/><radialGradient id="radial-gradient-12" cx="357.3202" cy="133.8017" r="79.9867" gradientTransform="matrix(0, 1, -0.4376, 0, 360.8179, -234.153)" xlink:href="#radial-gradient-2"/><linearGradient id="linear-gradient-78" x1="171.3566" y1="110.7637" x2="275.0965" y2="109.6997" gradientTransform="translate(191.2904 -114.8878) rotate(45)" xlink:href="#linear-gradient-45"/><linearGradient id="linear-gradient-79" x1="234.2623" y1="86.5629" x2="64.4324" y2="178.8513" gradientTransform="translate(376.2045 -114.7716) rotate(89.9999)" xlink:href="#linear-gradient-25"/><linearGradient id="linear-gradient-80" x1="233.9744" y1="261.2819" x2="254.216" y2="282.2873" gradientTransform="translate(316.7333 180.1581) rotate(8.8991)" xlink:href="#linear-gradient-45"/><linearGradient id="linear-gradient-81" x1="422.2225" y1="325.7862" x2="412.13" y2="386.9922" gradientTransform="matrix(-0.9397, -0.3421, -0.3421, 0.9397, 1097.4066, 268.7706)" xlink:href="#linear-gradient-25"/></defs><g class="cls-2"><g id="BACKGROUND"><rect class="cls-3" width="750" height="500" transform="translate(750 500) rotate(180)"/></g><g id="OBJECTS"><g class="cls-4"><circle class="cls-5" cx="181.0752" cy="196.1728" r="12.3925"/><path class="cls-6" d="M89.7836,377.81a59.2894,59.2894,0,0,0,59.29,59.2893V318.52A59.29,59.29,0,0,0,89.7836,377.81Z"/><rect class="cls-7" x="606.6211" y="281.8775" width="61.2344" height="28.0364"/><path class="cls-8" d="M670.69,312.749H603.7861V279.043H670.69Zm-61.2343-5.67h55.5644V284.7129H609.4561Z"/><polyline class="cls-9" points="678.359 87.448 664.256 77.645 650.154 87.448 636.051 77.645 621.946 87.448 607.844 77.645 593.74 87.448 579.635 77.645 565.529 87.448 551.423 77.645"/><polyline class="cls-10" points="678.359 72.361 664.256 62.557 650.154 72.361 636.051 62.557 621.946 72.361 607.844 62.557 593.74 72.361 579.635 62.557 565.529 72.361 551.423 62.557"/><polyline class="cls-11" points="678.359 57.273 664.256 47.47 650.154 57.273 636.051 47.47 621.946 57.273 607.844 47.47 593.74 57.273 579.635 47.47 565.529 57.273 551.423 47.47"/><path class="cls-12" d="M698.9506,512.3044a12.3925,12.3925,0,1,0-12.3925,12.3926A12.3925,12.3925,0,0,0,698.9506,512.3044Z"/><circle class="cls-13" cx="686.5581" cy="486.3845" r="12.3925"/><path class="cls-14" d="M698.9506,460.4647a12.3925,12.3925,0,1,0-12.3925,12.3924A12.3925,12.3925,0,0,0,698.9506,460.4647Z"/><circle class="cls-15" cx="686.5581" cy="434.5447" r="12.3925"/><rect class="cls-16" x="303.358" y="433.0347" width="4.0559" height="4.0558"/><rect class="cls-17" x="323.4117" y="433.0347" width="4.0558" height="4.0558"/><rect class="cls-18" x="343.4653" y="433.0347" width="4.0558" height="4.0558"/><rect class="cls-19" x="363.519" y="433.0347" width="4.0557" height="4.0558"/><rect class="cls-20" x="383.5726" y="433.0347" width="4.0558" height="4.0558"/><rect class="cls-21" x="403.6263" y="433.0347" width="4.0558" height="4.0558"/><rect class="cls-22" x="423.6799" y="433.0347" width="4.0558" height="4.0558"/><rect class="cls-23" x="303.358" y="447.9059" width="4.0559" height="4.0558"/><rect class="cls-24" x="323.4117" y="447.9059" width="4.0558" height="4.0558"/><rect class="cls-25" x="343.4653" y="447.9059" width="4.0558" height="4.0558"/><rect class="cls-26" x="363.519" y="447.9059" width="4.0557" height="4.0558"/><rect class="cls-27" x="383.5726" y="447.9059" width="4.0558" height="4.0558"/><rect class="cls-28" x="403.6263" y="447.9059" width="4.0558" height="4.0558"/><rect class="cls-29" x="423.6799" y="447.9059" width="4.0558" height="4.0558"/><rect class="cls-30" x="41.9209" y="104.4689" width="4.6012" height="4.6012"/><rect class="cls-31" x="64.6713" y="104.4689" width="4.6013" height="4.6012"/><rect class="cls-32" x="87.4218" y="104.4689" width="4.6012" height="4.6012"/><rect class="cls-33" x="110.1723" y="104.4689" width="4.6011" height="4.6012"/><rect class="cls-34" x="132.9227" y="104.4689" width="4.6013" height="4.6012"/><rect class="cls-35" x="41.9209" y="121.34" width="4.6012" height="4.6012"/><rect class="cls-36" x="64.6713" y="121.34" width="4.6013" height="4.6012"/><rect class="cls-37" x="87.4218" y="121.34" width="4.6012" height="4.6012"/><rect class="cls-38" x="110.1723" y="121.34" width="4.6011" height="4.6012"/><rect class="cls-39" x="132.9227" y="121.34" width="4.6013" height="4.6012"/><rect class="cls-40" x="41.9209" y="138.2111" width="4.6012" height="4.6013"/><rect class="cls-41" x="64.6713" y="138.2111" width="4.6013" height="4.6013"/><rect class="cls-42" x="87.4218" y="138.2111" width="4.6012" height="4.6013"/><rect class="cls-43" x="110.1723" y="138.2111" width="4.6011" height="4.6013"/><rect class="cls-44" x="132.9227" y="138.2111" width="4.6013" height="4.6013"/><polygon class="cls-45" points="37.814 439.111 37.814 433.96 30.609 433.96 30.609 426.755 25.458 426.755 25.458 433.96 18.253 433.96 18.253 439.111 25.458 439.111 25.458 446.316 30.609 446.316 30.609 439.111 37.814 439.111"/><polygon class="cls-46" points="70.845 439.111 78.05 439.111 78.05 433.96 70.845 433.96 70.845 426.755 65.694 426.755 65.694 433.96 58.489 433.96 58.489 439.111 65.694 439.111 65.694 446.316 70.845 446.316 70.845 439.111"/><g class="cls-2"><polygon class="cls-47" points="431.79 353.246 442.35 303.167 506.403 330.914 495.842 380.993 431.79 353.246"/><polygon class="cls-48" points="431.79 353.246 442.35 303.167 506.403 330.914 495.842 380.993 431.79 353.246"/><polygon class="cls-49" points="431.79 353.246 376.756 348.687 387.316 298.608 442.35 303.167 431.79 353.246"/><polygon class="cls-50" points="431.79 353.246 376.756 348.687 387.316 298.608 442.35 303.167 431.79 353.246"/><polygon class="cls-51" points="495.842 380.993 440.808 376.434 376.756 348.687 431.79 353.246 495.842 380.993"/></g><path class="cls-52" d="M215.1766,242.6633l-27.2244,89.75c-.7476,2.4647,4.7519,6.3148,12.2835,8.5995s14.2434,2.1386,14.991-.3262l27.2244-89.75Z"/><path class="cls-53" d="M242.4511,250.9367c-.7476,2.4647-7.4593,2.6107-14.991.3261s-13.0311-6.1347-12.2835-8.6,7.4594-2.6107,14.991-.3261S243.1987,248.4719,242.4511,250.9367Z"/><path class="cls-54" d="M407.6708,37.0115l45.9033,68.32c1.2606,1.8763-2.3653,6.52-8.0986,10.3721s-11.403,5.4539-12.6636,3.5777l-45.9033-68.32Z"/><path class="cls-55" d="M386.9086,50.9613c1.2606,1.8762,6.93.2744,12.6636-3.5777s9.3592-8.4958,8.0986-10.372-6.93-.2745-12.6636,3.5776S385.648,49.0851,386.9086,50.9613Z"/><path class="cls-56" d="M453.5741,105.3319l45.9033,68.32c1.2606,1.8763-2.3653,6.52-8.0986,10.3721s-11.403,5.4539-12.6636,3.5777l-45.9033-68.32Z"/><path class="cls-57" d="M453.5741,105.3319l45.9033,68.32c1.2606,1.8763-2.3653,6.52-8.0986,10.3721s-11.403,5.4539-12.6636,3.5777l-45.9033-68.32Z"/><path class="cls-58" d="M432.8119,119.2817c1.2606,1.8762,6.93.2744,12.6636-3.5777s9.3592-8.4958,8.0986-10.3721-6.93-.2744-12.6636,3.5777S431.5513,117.4054,432.8119,119.2817Z"/><path class="cls-59" d="M117.3972,248.4381l-98.4644-38.73-37.3893,87.1609ZM.7854,280.8255l24.0759-56.7034L88.4922,249.383,83.3266,250.46l-78.93,29.0415Z"/><polygon class="cls-60" points="24.677 231.099 78.092 252.424 88.492 249.383 24.861 224.122 0.785 280.826 4.397 279.501 24.677 231.099"/><polygon class="cls-61" points="116.989 259.119 117.397 248.438 -18.457 296.869 -17.285 307.554 116.989 259.119"/><polygon class="cls-62" points="551.766 455.197 524.606 395.647 658.81 421.405 551.766 455.197"/><polygon class="cls-63" points="551.766 455.197 524.606 395.647 658.81 421.405 551.766 455.197"/><polygon class="cls-64" points="524.606 395.647 581.395 356.875 658.81 421.405 524.606 395.647"/><polygon class="cls-65" points="721.013 117.658 716.731 47.824 605.615 150.188 721.013 117.658"/><polygon class="cls-66" points="716.731 47.824 659.018 57.617 605.615 150.188 716.731 47.824"/><polygon class="cls-67" points="141.202 473.425 208.574 466.374 104.929 363.154 141.202 473.425"/><polygon class="cls-68" points="208.574 466.374 220.478 383.814 104.929 363.154 208.574 466.374"/><polygon class="cls-69" points="208.574 466.374 220.478 383.814 104.929 363.154 208.574 466.374"/><g class="cls-2"><polygon class="cls-70" points="363.291 287.87 566.249 214.709 543.177 269.447 340.219 342.608 363.291 287.87"/><polygon class="cls-71" points="363.291 287.87 316.909 278.344 519.867 205.183 566.249 214.709 363.291 287.87"/><polygon class="cls-70" points="363.291 287.87 566.249 214.709 543.177 269.447 340.219 342.608 363.291 287.87"/><polygon class="cls-71" points="363.291 287.87 316.909 278.344 519.867 205.183 566.249 214.709 363.291 287.87"/><polygon class="cls-72" points="363.291 287.87 566.249 214.709 543.177 269.447 340.219 342.608 363.291 287.87"/><polygon class="cls-73" points="363.291 287.87 316.909 278.344 519.867 205.183 566.249 214.709 363.291 287.87"/><polygon class="cls-74" points="340.219 342.608 316.909 278.344 363.291 287.87 340.219 342.608"/></g><g class="cls-2"><polygon class="cls-75" points="681.221 278.342 708.361 168.631 746.547 205.647 719.407 315.357 681.221 278.342"/><polygon class="cls-76" points="681.221 278.342 640.73 289.994 667.87 180.283 708.361 168.631 681.221 278.342"/><polygon class="cls-77" points="719.407 315.357 678.916 327.01 640.73 289.994 681.221 278.342 719.407 315.357"/></g><g class="cls-2"><polygon class="cls-78" points="495.849 228.85 510.873 167.001 546.52 201.556 531.496 263.405 495.849 228.85"/><polygon class="cls-79" points="495.849 228.85 458.049 239.727 473.073 177.878 510.873 167.001 495.849 228.85"/><polygon class="cls-80" points="531.496 263.405 493.696 274.282 458.049 239.727 495.849 228.85 531.496 263.405"/></g><g class="cls-81"><circle class="cls-82" cx="235.9113" cy="355.825" r="61.3047" transform="translate(-152.3816 533.2912) rotate(-81.0181)"/><circle class="cls-83" cx="235.9113" cy="355.825" r="61.3047" transform="translate(-152.3816 533.2912) rotate(-81.0181)"/></g><g class="cls-2"><path class="cls-84" d="M130.5387-54.4162l9.6276,13.9672C121.1255-28.3932,116.348-3.043,129.5244,16.0628A44.3136,44.3136,0,0,0,170.7223,34.87a40.771,40.771,0,0,0,17.2486-6.0419l9.6255,13.9541a57.2074,57.2074,0,0,1-24.2073,8.4824,62.1556,62.1556,0,0,1-57.7943-26.3921C97.1041-1.929,103.81-37.4954,130.5387-54.4162Z"/><path class="cls-85" d="M173.3892,51.2646a62.1552,62.1552,0,0,1-57.7944-26.3921C102.5477,5.9613,102.0454-17.3137,112.27-35.3233L106.3469-24.89c-10.2248,18.01-9.7226,41.2845,3.3246,60.1958a62.1557,62.1557,0,0,0,57.7943,26.3921,57.2088,57.2088,0,0,0,24.2074-8.4824l5.9232-10.433A57.2064,57.2064,0,0,1,173.3892,51.2646Z"/></g><g class="cls-2"><path class="cls-86" d="M364.6038,60.1389l15.4347,3.5956c-5.574,20.3028,7.0663,40.8213,28.1841,45.7356a41.3987,41.3987,0,0,0,40.29-12.9129A38.0867,38.0867,0,0,0,456.63,81.5364l15.4251,3.5879a53.4437,53.4437,0,0,1-11.3907,21.0828,58.0667,58.0667,0,0,1-56.5258,18.1089C374.51,117.4267,356.7776,88.6372,364.6038,60.1389Z"/><path class="cls-87" d="M382.5068,74.6674l-2.4683-10.9329a36.1074,36.1074,0,0,0-.437,17.577L382.07,92.2443A36.1046,36.1046,0,0,1,382.5068,74.6674Z"/><path class="cls-88" d="M460.6645,106.2071a58.0665,58.0665,0,0,1-56.5258,18.1089c-20.9062-4.8611-35.8894-20.6258-40.15-39.4982l2.4683,10.9329c4.2607,18.8724,19.2438,34.637,40.15,39.4982A58.0669,58.0669,0,0,0,463.1328,117.14a53.4442,53.4442,0,0,0,11.3906-21.0828l-2.4682-10.9328A53.4452,53.4452,0,0,1,460.6645,106.2071Z"/></g><path class="cls-89" d="M250.45,112.4286l-20.1861,20.1861c-9.4774,9.4774,6.94,41.26,36.6686,70.9893s61.5119,46.1461,70.9893,36.6687l20.1862-20.1861Z"/><ellipse class="cls-90" cx="304.2793" cy="166.2576" rx="24.2683" ry="76.1257" transform="translate(-28.4405 263.8537) rotate(-45)"/><ellipse class="cls-91" cx="304.2793" cy="166.2576" rx="24.2683" ry="76.1257" transform="translate(-28.4405 263.8537) rotate(-45)"/><path class="cls-92" d="M247.1327,71.9072,233.4546,85.5854c-6.4219,6.4219,4.7023,27.958,24.8467,48.1024s41.68,31.2686,48.1024,24.8467l13.6782-13.6782Z"/><ellipse class="cls-93" cx="283.6072" cy="108.3818" rx="16.4442" ry="51.5828" transform="translate(6.429 232.2845) rotate(-44.9999)"/><path class="cls-94" d="M579.6054,422.9585,439.0509,524.2764c-2.1675,1.5806-.0092,8.2312,4.8206,14.8547s10.5024,10.7114,12.67,9.1308L597.0959,446.9441Z"/><path class="cls-95" d="M597.0959,446.9441c-2.1675,1.5806-7.84-2.5075-12.67-9.1309s-6.9881-13.2741-4.8206-14.8547,7.84,2.5075,12.67,9.1309S599.2634,445.3635,597.0959,446.9441Z"/></g></g></g></svg>